<?xml version="1.0" encoding="utf-8"?>
<!-- Generator: Adobe Illustrator 18.1.1, SVG Export Plug-In . SVG Version: 6.00 Build 0)  -->
<svg version="1.1" id="Color" xmlns="http://www.w3.org/2000/svg" xmlns:xlink="http://www.w3.org/1999/xlink" x="0px" y="0px"
	 viewBox="0 0 1129.3 264.7" enable-background="new 0 0 1129.3 264.7" xml:space="preserve">
<g>
	<g>
		<path fill="#1A2B56" d="M81.4,97c-2.2-3.6-5.2-6.2-8.8-7.9c-3.6-1.7-7.6-2.5-11.8-2.5c-2.1,0-4.5,0.3-7.1,1
			c-2.6,0.7-5,1.7-7.1,3.1c-2.2,1.4-4,3.3-5.5,5.6c-1.5,2.4-2.2,5.2-2.2,8.6c0,4.3,1.5,7.6,4.5,9.9c3,2.4,7,4.5,12,6.4
			c10.4,3.8,18.4,8.4,24,13.7c5.6,5.3,8.4,12.5,8.4,21.6c0,6.8-1.3,12.7-4,17.5c-2.7,4.8-6.2,8.7-10.6,11.8c-4.4,3-9.3,5.2-14.8,6.6
			c-5.5,1.4-11,2.1-16.6,2.1c-3.9,0-7.9-0.4-11.8-1.2c-4-0.8-7.8-2-11.3-3.5c-3.6-1.6-6.9-3.6-10-6c-3.1-2.4-5.7-5.3-7.8-8.7
			l16.8-11.6c2.2,3.9,5.6,7.1,10.2,9.7s9.5,3.8,15,3.8c2.8,0,5.6-0.3,8.3-1c2.7-0.7,5.2-1.8,7.4-3.3c2.2-1.5,4-3.5,5.4-5.9
			c1.4-2.4,2.1-5.4,2.1-9c0-2.7-0.6-5.1-1.8-7.1c-1.2-2.1-2.7-3.9-4.7-5.5c-2-1.6-4.2-3-6.8-4.2c-2.6-1.2-5.3-2.4-8.2-3.4
			c-3.6-1.3-7-2.9-10.2-4.5c-3.2-1.7-6-3.7-8.5-6.1c-2.5-2.4-4.4-5.3-5.8-8.7c-1.4-3.4-2.1-7.3-2.1-11.9c0-5.9,1.3-11.2,3.8-15.8
			c2.5-4.6,5.9-8.5,10-11.6c4.1-3.1,8.9-5.5,14.4-7.1c5.4-1.6,11.1-2.4,16.9-2.4c3,0,6.1,0.3,9.3,1c3.2,0.7,6.3,1.7,9.2,2.9
			c3,1.3,5.8,2.9,8.4,4.8c2.6,1.9,4.8,4.1,6.6,6.7L81.4,97z"/>
		<path fill="#1A2B56" d="M114.6,157.3c-0.1,0.6-0.2,1.2-0.2,1.8c0,2.7,0.5,5.2,1.6,7.4c1.1,2.2,2.5,4.2,4.5,5.8
			c1.9,1.6,4.1,2.9,6.7,3.9c2.6,1,5.4,1.4,8.4,1.4c5.2,0,9.5-1,13.2-2.9c3.6-1.9,6.9-4.5,9.8-7.7l11.3,10.6
			c-10,10.8-22.1,16.1-36.5,16.1c-5.5,0-10.5-0.8-15.1-2.4c-4.6-1.6-8.6-3.9-11.9-7s-6-6.7-7.9-11.2c-1.9-4.4-2.9-9.5-2.9-15.2
			c0-6.9,1.2-13.4,3.5-19.4c2.4-6,5.6-11.2,9.8-15.7c4.2-4.5,9.2-8,15-10.5c5.8-2.5,12.1-3.8,18.9-3.8c4.8,0,9.3,0.7,13.4,2
			c4.1,1.3,7.6,3.4,10.7,6c3,2.7,5.4,6,7.1,10.1c1.7,4,2.5,8.7,2.5,14.1c0,1.8-0.2,4.3-0.5,7.5c-0.3,3.2-0.8,6.2-1.5,9H114.6z
			 M158.3,143.2c0.1-0.8,0.2-1.5,0.3-2.2c0.1-0.7,0.1-1.3,0.1-2c0-4.4-1.5-8.1-4.6-11.1c-3.1-3-7.4-4.5-13-4.5
			c-3.5,0-6.6,0.6-9.4,1.8c-2.8,1.2-5.2,2.8-7.3,4.8c-2.1,2-3.8,4.1-5.1,6.5c-1.3,2.4-2.2,4.6-2.7,6.7H158.3z"/>
		<path fill="#1A2B56" d="M211.6,123.4c2.8-4.4,6.4-7.9,10.7-10.7c4.3-2.7,9.5-4.1,15.5-4.1c4.5,0,8.4,0.7,11.7,2
			c3.3,1.3,6,3.1,8.2,5.4c2.2,2.2,3.8,4.9,4.9,8c1.1,3.1,1.6,6.3,1.6,9.7c0,2.8-0.2,5.3-0.7,7.6l-8.9,50.2h-19.7l7.7-44.4
			c0.2-1.3,0.4-2.7,0.6-4c0.2-1.3,0.3-2.7,0.3-4c0-3.6-1-6.7-2.9-9.5c-1.9-2.7-5.4-4.1-10.4-4.1c-3.2,0-6.1,0.6-8.6,1.8
			c-2.5,1.2-4.6,2.9-6.5,5c-1.8,2.1-3.4,4.4-4.5,7c-1.2,2.6-2,5.2-2.4,7.9l-7.9,44.4h-19.7l11.1-63.3c0.4-2.1,0.9-4.9,1.4-8.2
			c0.5-3.4,0.9-6.4,1.1-9.1h18.5c-0.1,1.2-0.3,3.2-0.7,5.8c-0.3,2.6-0.6,4.9-0.8,6.8H211.6z"/>
		<path fill="#1A2B56" d="M279.8,168.2c1.7,3.2,4.2,5.7,7.5,7.5c3.3,1.7,7,2.6,11,2.6c4.6,0,8.3-0.9,11-2.7c2.7-1.8,4.1-4.3,4.1-7.4
			c0-2.9-1.1-5.1-3.3-6.5c-2.2-1.4-5.7-2.9-10.5-4.5c-3.8-1.2-7.1-2.5-10-3.8c-2.9-1.3-5.2-2.8-7.1-4.5c-1.9-1.7-3.3-3.7-4.3-6
			c-1-2.2-1.4-4.9-1.4-7.9c0-3.9,0.9-7.5,2.7-10.8c1.8-3.2,4.3-6,7.4-8.4c3.1-2.4,6.8-4.2,11.1-5.5c4.3-1.3,8.9-1.9,13.9-1.9
			c6.3,0,12,1.1,17.1,3.4c5.1,2.3,9.1,5.8,12,10.5l-15.3,9.1c-1.5-2.2-3.4-4.1-5.7-5.6c-2.4-1.5-5.5-2.3-9.6-2.3
			c-1.7,0-3.4,0.2-5.1,0.5c-1.7,0.3-3.3,0.9-4.6,1.6c-1.3,0.7-2.4,1.7-3.3,2.9c-0.8,1.2-1.3,2.7-1.3,4.5c0,2.6,1.1,4.5,3.3,5.7
			c2.2,1.2,5.4,2.5,9.7,3.7c7.5,2.1,13.3,5,17.5,8.7c4.1,3.6,6.2,8.8,6.2,15.5c0,4.5-1,8.4-2.9,11.8c-1.9,3.4-4.5,6.3-7.6,8.7
			c-3.2,2.4-6.9,4.1-11.1,5.3c-4.2,1.2-8.7,1.8-13.4,1.8c-8.7,0-15.8-1.5-21.1-4.6c-5.3-3.1-9.4-6.9-12.2-11.5L279.8,168.2z"/>
		<path fill="#1A2B56" d="M381.6,193.6c-5.6,0-10.8-0.8-15.5-2.5c-4.8-1.7-8.9-4.1-12.3-7.2c-3.5-3.1-6.2-6.8-8.1-11.1
			c-2-4.3-2.9-9-2.9-14.3c0-6.6,1.1-12.9,3.4-18.9c2.3-6,5.6-11.3,9.8-15.9c4.3-4.6,9.4-8.3,15.4-11c6-2.7,12.7-4.1,20.1-4.1
			c5.7,0,10.9,0.8,15.7,2.5c4.8,1.7,8.9,4.1,12.3,7.1c3.5,3.1,6.2,6.8,8.1,11.1c2,4.3,2.9,9,2.9,14.2c0,6.7-1.2,13.1-3.4,19.2
			c-2.3,6-5.6,11.4-9.8,16c-4.3,4.6-9.4,8.2-15.5,10.9S389,193.6,381.6,193.6z M410.7,145.6c0-6.1-1.8-11.1-5.5-15
			c-3.7-3.9-8.7-5.9-15.1-5.9c-4.3,0-8.1,0.9-11.5,2.6c-3.4,1.7-6.3,4.1-8.7,7c-2.4,2.9-4.3,6.3-5.6,10.1c-1.3,3.8-2,7.9-2,12.1
			c0,6.1,1.8,11.1,5.4,15c3.6,3.9,8.6,5.9,15.1,5.9c4.3,0,8.1-0.8,11.6-2.5c3.5-1.7,6.4-4,8.8-6.9c2.4-2.9,4.3-6.3,5.6-10.2
			C410,153.9,410.7,149.9,410.7,145.6z"/>
		<path fill="#1A2B56" d="M466.9,124.2c2.8-4.7,6.1-8.5,9.9-11.3c3.8-2.9,8.4-4.3,13.8-4.3c0.8,0,1.6,0,2.5,0.1
			c0.9,0.1,1.7,0.2,2.4,0.4l-2.7,18.3c-1.2-0.3-2.3-0.6-3.3-0.7c-1-0.1-1.9-0.2-2.8-0.2c-4.6,0-8.3,0.8-11.3,2.5
			c-2.9,1.7-5.3,3.7-7.1,6c-1.8,2.4-3.1,4.8-3.9,7.2c-0.8,2.5-1.3,4.4-1.5,5.9l-7.6,43.2h-19.7l11.3-63.3c0.4-2.1,0.9-4.9,1.4-8.2
			c0.5-3.4,0.9-6.4,1.1-9.1h18.5c0,0.6-0.1,1.4-0.2,2.5c-0.1,1.1-0.3,2.4-0.4,3.7c-0.2,1.3-0.3,2.7-0.5,3.9
			c-0.2,1.3-0.3,2.4-0.4,3.3H466.9z"/>
		<path fill="#1A2B56" d="M555.6,72.5c13.1,0,23.1,2.7,30.1,8.2c6.9,5.5,10.4,13.2,10.4,23c0,6.7-1.2,12.5-3.6,17.3
			c-2.4,4.8-5.8,8.8-10.2,11.9c-4.4,3.1-9.7,5.4-15.9,6.9c-6.2,1.5-12.9,2.2-20.3,2.2h-18l-8.7,49.4h-20.5l21-118.9H555.6z
			 M546.7,124.5c4.1,0,8-0.3,11.5-0.9c3.5-0.6,6.5-1.7,9-3.1c2.5-1.5,4.4-3.4,5.8-5.7c1.4-2.4,2.1-5.3,2.1-8.9
			c0-3.1-0.6-5.7-1.7-7.8c-1.1-2.1-2.7-3.7-4.7-4.9c-2-1.2-4.4-2-7.2-2.5c-2.8-0.5-5.9-0.8-9.2-0.8h-15.1l-6.2,34.6H546.7z"/>
		<path fill="#1A2B56" d="M644.5,178.8c-2.8,4.4-6.4,7.9-10.7,10.7c-4.3,2.7-9.5,4.1-15.5,4.1c-4.5,0-8.4-0.7-11.7-2
			c-3.3-1.3-6-3.1-8.2-5.4c-2.2-2.2-3.8-4.9-4.9-8c-1.1-3.1-1.6-6.3-1.6-9.7c0-2.8,0.2-5.3,0.7-7.6l8.9-50.2h19.7l-7.7,44.4
			c-0.2,1.3-0.4,2.7-0.6,4c-0.2,1.3-0.3,2.7-0.3,4c0,3.6,1,6.7,2.9,9.5c1.9,2.7,5.4,4.1,10.4,4.1c3.1,0,6-0.6,8.5-1.8
			c2.5-1.2,4.7-2.9,6.6-5c1.8-2.1,3.4-4.4,4.5-7c1.2-2.6,2-5.2,2.4-7.9l7.9-44.4h19.7l-11.1,63.3c-0.4,2.1-0.9,4.9-1.4,8.2
			c-0.5,3.4-0.9,6.4-1.1,9.1h-18.5c0.1-1.2,0.3-3.2,0.7-5.8c0.3-2.6,0.6-4.9,0.8-6.8H644.5z"/>
		<path fill="#1A2B56" d="M686.8,168.2c1.7,3.2,4.2,5.7,7.5,7.5c3.3,1.7,7,2.6,11,2.6c4.6,0,8.3-0.9,11-2.7c2.7-1.8,4.1-4.3,4.1-7.4
			c0-2.9-1.1-5.1-3.3-6.5c-2.2-1.4-5.7-2.9-10.5-4.5c-3.8-1.2-7.1-2.5-10-3.8c-2.9-1.3-5.2-2.8-7.1-4.5c-1.9-1.7-3.3-3.7-4.3-6
			c-1-2.2-1.4-4.9-1.4-7.9c0-3.9,0.9-7.5,2.7-10.8c1.8-3.2,4.3-6,7.4-8.4c3.1-2.4,6.8-4.2,11.1-5.5c4.3-1.3,8.9-1.9,13.9-1.9
			c6.3,0,12,1.1,17.1,3.4c5.1,2.3,9.1,5.8,12,10.5l-15.3,9.1c-1.5-2.2-3.4-4.1-5.7-5.6c-2.4-1.5-5.5-2.3-9.6-2.3
			c-1.7,0-3.4,0.2-5.1,0.5c-1.7,0.3-3.3,0.9-4.6,1.6c-1.3,0.7-2.4,1.7-3.3,2.9c-0.8,1.2-1.3,2.7-1.3,4.5c0,2.6,1.1,4.5,3.3,5.7
			c2.2,1.2,5.4,2.5,9.7,3.7c7.5,2.1,13.3,5,17.5,8.7c4.1,3.6,6.2,8.8,6.2,15.5c0,4.5-1,8.4-2.9,11.8c-1.9,3.4-4.5,6.3-7.6,8.7
			c-3.2,2.4-6.9,4.1-11.1,5.3c-4.2,1.2-8.7,1.8-13.4,1.8c-8.7,0-15.8-1.5-21.1-4.6c-5.3-3.1-9.4-6.9-12.2-11.5L686.8,168.2z"/>
		<path fill="#1A2B56" d="M799.6,191.4l7.7-44.4c0.2-1.3,0.4-2.7,0.6-4c0.2-1.3,0.3-2.7,0.3-4c0-3.6-1-6.7-2.9-9.5
			c-1.9-2.7-5.4-4.1-10.4-4.1c-3.2,0-6.1,0.6-8.7,1.8c-2.5,1.2-4.7,2.9-6.6,5c-1.8,2.1-3.4,4.5-4.5,7.1c-1.2,2.7-2,5.4-2.4,8.2
			l-7.7,43.8h-19.7l22.3-127h19.8l-10.2,57.8h0.3c2.2-3.6,5.4-6.7,9.6-9.5c4.1-2.7,9.2-4.1,15.3-4.1c4.5,0,8.4,0.7,11.7,2
			c3.3,1.3,6,3.1,8.2,5.4c2.2,2.2,3.8,4.9,4.9,8c1.1,3.1,1.6,6.3,1.6,9.7c0,2.8-0.2,5.3-0.7,7.6l-8.9,50.2H799.6z"/>
	</g>
	<g>
		<path fill="#5BBB55" d="M1078.4,30.5l-23.9,135.4h-71l28.9-163.6c-5.7-0.7-11.5-1.1-17.4-1.1c-73.4,0-133,59.5-133,133
			c0,62.2,42.7,114.4,100.4,129c-0.1-1.4-0.2-2.9-0.2-4.4c0-13.3,4.6-24.4,14-33.1c9.3-8.7,20-13,32.1-13c12.1,0,22.3,3.9,30.6,11.8
			c7.9,7.6,12.1,17.6,12.4,30.2c45.3-21.2,76.6-67.2,76.6-120.5C1128.1,92.2,1108.7,54.9,1078.4,30.5z"/>
		<g>
			<g>
				<path fill="#5BBB55" d="M1111.6,233.7c7.2,0,13.1,5.9,13.1,13.1c0,7.2-5.9,13.1-13.1,13.1s-13.1-5.9-13.1-13.1
					C1098.5,239.6,1104.4,233.7,1111.6,233.7 M1111.6,232.4c-8,0-14.4,6.5-14.4,14.4c0,8,6.5,14.4,14.4,14.4s14.4-6.5,14.4-14.4
					C1126,238.8,1119.5,232.4,1111.6,232.4L1111.6,232.4z"/>
			</g>
			<path fill="#5BBB55" d="M1107.3,239.1h4.1c0.2,0,0.5,0,0.8,0c0.4,0,0.7,0.1,1.1,0.1c0.4,0.1,0.8,0.2,1.2,0.3
				c0.4,0.2,0.8,0.4,1.1,0.7c0.3,0.3,0.6,0.7,0.8,1.2c0.2,0.5,0.3,1,0.3,1.7c0,0.7-0.1,1.4-0.4,1.8c-0.3,0.5-0.6,0.9-1,1.2
				c-0.4,0.3-0.8,0.5-1.3,0.7c-0.5,0.1-0.9,0.2-1.3,0.3l4.5,7.5h-1.6l-4.4-7.4h-2.7v7.4h-1.4V239.1z M1108.7,246h3.1
				c0.8,0,1.4-0.1,1.9-0.3c0.5-0.2,0.8-0.4,1.1-0.7c0.3-0.3,0.4-0.6,0.5-0.9c0.1-0.3,0.1-0.6,0.1-0.9c0-0.3-0.1-0.6-0.1-0.9
				c-0.1-0.3-0.3-0.6-0.5-0.9s-0.6-0.5-1.1-0.7c-0.5-0.2-1.1-0.3-1.9-0.3h-3.1V246z"/>
		</g>
	</g>
</g>
</svg>
